<?xml version="1.0" encoding="UTF-8" standalone="no"?>
<!-- Generated by graphviz version 2.40.1 (20161225.0304)
 -->

<!-- Title: defs Pages: 1 -->

<svg
   xmlns:dc="http://purl.org/dc/elements/1.1/"
   xmlns:cc="http://creativecommons.org/ns#"
   xmlns:rdf="http://www.w3.org/1999/02/22-rdf-syntax-ns#"
   xmlns:svg="http://www.w3.org/2000/svg"
   xmlns="http://www.w3.org/2000/svg"
   xmlns:sodipodi="http://sodipodi.sourceforge.net/DTD/sodipodi-0.dtd"
   xmlns:inkscape="http://www.inkscape.org/namespaces/inkscape"
   width="1418pt"
   height="548pt"
   viewBox="0.00 0.00 1418.21 548.00"
   id="svg2"
   version="1.1"
   inkscape:version="0.91 r13725"
   sodipodi:docname="calls.svg"
   inkscape:export-filename="/home/romilly/git/active/o-x-o/data/calls.png"
   inkscape:export-xdpi="300"
   inkscape:export-ydpi="300">
  <metadata
     id="metadata643">
    <rdf:RDF>
      <cc:Work
         rdf:about="">
        <dc:format>image/svg+xml</dc:format>
        <dc:type
           rdf:resource="http://purl.org/dc/dcmitype/StillImage" />
      </cc:Work>
    </rdf:RDF>
  </metadata>
  <defs
     id="defs641" />
  <sodipodi:namedview
     pagecolor="#ffffff"
     bordercolor="#666666"
     borderopacity="1"
     objecttolerance="10"
     gridtolerance="10"
     guidetolerance="10"
     inkscape:pageopacity="0"
     inkscape:pageshadow="2"
     inkscape:window-width="1920"
     inkscape:window-height="1030"
     id="namedview639"
     showgrid="false"
     inkscape:zoom="0.62664335"
     inkscape:cx="813.56162"
     inkscape:cy="342.5"
     inkscape:window-x="0"
     inkscape:window-y="24"
     inkscape:window-maximized="1"
     inkscape:current-layer="svg2" />
  <g
     id="graph0"
     class="graph"
     transform="scale(1 1) rotate(0) translate(4 544)">
    <title
       id="title5">defs</title>
    <polygon
       fill="#ffffff"
       stroke="transparent"
       points="-4,4 -4,-544 1414.2106,-544 1414.2106,4 -4,4"
       id="polygon7" />
    <!-- show -->
    <g
       id="node1"
       class="node">
      <title
         id="title10">show</title>
      <polygon
         fill="none"
         stroke="#000000"
         points="162,-540 108,-540 108,-504 162,-504 162,-540"
         id="polygon12" />
      <text
         text-anchor="middle"
         x="135"
         y="-517.8"
         font-family="Times,serif"
         font-size="14.00"
         fill="#000000"
         id="text14">show</text>
    </g>
    <!-- list -->
    <g
       id="node4"
       class="node">
      <title
         id="title17">list</title>
      <polygon
         fill="none"
         stroke="#000000"
         points="162,-468 108,-468 108,-432 162,-432 162,-468"
         id="polygon19" />
      <text
         text-anchor="middle"
         x="135"
         y="-445.8"
         font-family="Times,serif"
         font-size="14.00"
         fill="#000000"
         id="text21">list</text>
    </g>
    <!-- show&#45;&gt;list -->
    <g
       id="edge1"
       class="edge">
      <title
         id="title24">show-&gt;list</title>
      <path
         fill="none"
         stroke="#000000"
         d="M135,-503.8314C135,-496.131 135,-486.9743 135,-478.4166"
         id="path26" />
      <polygon
         fill="#000000"
         stroke="#000000"
         points="138.5001,-478.4132 135,-468.4133 131.5001,-478.4133 138.5001,-478.4132"
         id="polygon28" />
    </g>
    <!-- encode -->
    <g
       id="node2"
       class="node">
      <title
         id="title31">encode</title>
      <polygon
         fill="none"
         stroke="#000000"
         points="225.6449,-324 170.3551,-324 170.3551,-288 225.6449,-288 225.6449,-324"
         id="polygon33" />
      <text
         text-anchor="middle"
         x="198"
         y="-301.8"
         font-family="Times,serif"
         font-size="14.00"
         fill="#000000"
         id="text35">encode</text>
    </g>
    <!-- all -->
    <g
       id="node31"
       class="node">
      <title
         id="title38">all</title>
      <ellipse
         fill="none"
         stroke="#000000"
         cx="277"
         cy="-234"
         rx="27"
         ry="18"
         id="ellipse40" />
      <text
         text-anchor="middle"
         x="277"
         y="-229.8"
         font-family="Times,serif"
         font-size="14.00"
         fill="#000000"
         id="text42">all</text>
    </g>
    <!-- encode&#45;&gt;all -->
    <g
       id="edge36"
       class="edge">
      <title
         id="title45">encode-&gt;all</title>
      <path
         fill="none"
         stroke="#000000"
         d="M217.935,-287.8314C228.7795,-277.9478 242.2562,-265.6652 253.5972,-255.3291"
         id="path47" />
      <polygon
         fill="#000000"
         stroke="#000000"
         points="256.0155,-257.8607 261.0488,-248.5378 251.3003,-252.687 256.0155,-257.8607"
         id="polygon49" />
    </g>
    <!-- samples -->
    <g
       id="node32"
       class="node">
      <title
         id="title52">samples</title>
      <ellipse
         fill="none"
         stroke="#000000"
         cx="114"
         cy="-234"
         rx="42.2913"
         ry="18"
         id="ellipse54" />
      <text
         text-anchor="middle"
         x="114"
         y="-229.8"
         font-family="Times,serif"
         font-size="14.00"
         fill="#000000"
         id="text56">samples</text>
    </g>
    <!-- encode&#45;&gt;samples -->
    <g
       id="edge37"
       class="edge">
      <title
         id="title59">encode-&gt;samples</title>
      <path
         fill="none"
         stroke="#000000"
         d="M176.8033,-287.8314C165.8252,-278.4216 152.3104,-266.8375 140.6336,-256.8288"
         id="path61" />
      <polygon
         fill="#000000"
         stroke="#000000"
         points="142.7674,-254.048 132.897,-250.1975 138.2118,-259.3628 142.7674,-254.048"
         id="polygon63" />
    </g>
    <!-- uc -->
    <g
       id="node33"
       class="node">
      <title
         id="title66">uc</title>
      <ellipse
         fill="none"
         stroke="#000000"
         cx="201"
         cy="-234"
         rx="27"
         ry="18"
         id="ellipse68" />
      <text
         text-anchor="middle"
         x="201"
         y="-229.8"
         font-family="Times,serif"
         font-size="14.00"
         fill="#000000"
         id="text70">uc</text>
    </g>
    <!-- encode&#45;&gt;uc -->
    <g
       id="edge38"
       class="edge">
      <title
         id="title73">encode-&gt;uc</title>
      <path
         fill="none"
         stroke="#000000"
         d="M192.8046,-287.8314C192.3684,-280.0125 192.5408,-270.6923 193.2319,-262.0221"
         id="path75" />
      <polygon
         fill="#000000"
         stroke="#000000"
         points="196.7296,-262.2321 194.3263,-251.9134 189.7702,-261.4786 196.7296,-262.2321"
         id="polygon77" />
    </g>
    <!-- encode&#45;&gt;uc -->
    <g
       id="edge40"
       class="edge">
      <title
         id="title80">encode-&gt;uc</title>
      <path
         fill="none"
         stroke="#000000"
         d="M204.7094,-287.8314C205.7972,-280.0125 206.4015,-270.6923 206.4329,-262.0221"
         id="path82" />
      <polygon
         fill="#000000"
         stroke="#000000"
         points="209.9291,-261.823 206.1809,-251.9134 202.9313,-261.9976 209.9291,-261.823"
         id="polygon84" />
    </g>
    <!-- decode -->
    <g
       id="node3"
       class="node">
      <title
         id="title87">decode</title>
      <polygon
         fill="none"
         stroke="#000000"
         points="205.6449,-396 150.3551,-396 150.3551,-360 205.6449,-360 205.6449,-396"
         id="polygon89" />
      <text
         text-anchor="middle"
         x="178"
         y="-373.8"
         font-family="Times,serif"
         font-size="14.00"
         fill="#000000"
         id="text91">decode</text>
    </g>
    <!-- canonical -->
    <g
       id="node8"
       class="node">
      <title
         id="title94">canonical</title>
      <polygon
         fill="none"
         stroke="#000000"
         points="313.6405,-324 244.3595,-324 244.3595,-288 313.6405,-288 313.6405,-324"
         id="polygon96" />
      <text
         text-anchor="middle"
         x="279"
         y="-301.8"
         font-family="Times,serif"
         font-size="14.00"
         fill="#000000"
         id="text98">canonical</text>
    </g>
    <!-- decode&#45;&gt;canonical -->
    <g
       id="edge2"
       class="edge">
      <title
         id="title101">decode-&gt;canonical</title>
      <path
         fill="none"
         stroke="#000000"
         d="M203.4866,-359.8314C216.1659,-350.7927 231.6596,-339.7476 245.3055,-330.0198"
         id="path103" />
      <polygon
         fill="#000000"
         stroke="#000000"
         points="247.4105,-332.8176 253.5216,-324.1628 243.3471,-327.1176 247.4105,-332.8176"
         id="polygon105" />
    </g>
    <!-- m -->
    <g
       id="node5"
       class="node">
      <title
         id="title108">m</title>
      <polygon
         fill="none"
         stroke="#000000"
         points="736,-540 682,-540 682,-504 736,-504 736,-540"
         id="polygon110" />
      <text
         text-anchor="middle"
         x="709"
         y="-517.8"
         font-family="Times,serif"
         font-size="14.00"
         fill="#000000"
         id="text112">m</text>
    </g>
    <!-- mi -->
    <g
       id="node22"
       class="node">
      <title
         id="title115">mi</title>
      <ellipse
         fill="none"
         stroke="#000000"
         cx="207"
         cy="-450"
         rx="27"
         ry="18"
         id="ellipse117" />
      <text
         text-anchor="middle"
         x="207"
         y="-445.8"
         font-family="Times,serif"
         font-size="14.00"
         fill="#000000"
         id="text119">mi</text>
    </g>
    <!-- m&#45;&gt;mi -->
    <g
       id="edge16"
       class="edge">
      <title
         id="title122">m-&gt;mi</title>
      <path
         fill="none"
         stroke="#000000"
         d="M681.9277,-520.1035C595.4119,-513.8488 326.4211,-492.8491 243,-468 241.0914,-467.4315 239.1615,-466.7664 237.2389,-466.0334"
         id="path124" />
      <polygon
         fill="#000000"
         stroke="#000000"
         points="238.3827,-462.7142 227.8166,-461.9341 235.59,-469.133 238.3827,-462.7142"
         id="polygon126" />
    </g>
    <!-- mr90 -->
    <g
       id="node23"
       class="node">
      <title
         id="title129">mr90</title>
      <ellipse
         fill="none"
         stroke="#000000"
         cx="860"
         cy="-378"
         rx="31.341"
         ry="18"
         id="ellipse131" />
      <text
         text-anchor="middle"
         x="860"
         y="-373.8"
         font-family="Times,serif"
         font-size="14.00"
         fill="#000000"
         id="text133">mr90</text>
    </g>
    <!-- m&#45;&gt;mr90 -->
    <g
       id="edge17"
       class="edge">
      <title
         id="title136">m-&gt;mr90</title>
      <path
         fill="none"
         stroke="#000000"
         d="M728.1243,-503.7623C755.6613,-477.5018 806.4446,-429.0727 836.3173,-400.5848"
         id="path138" />
      <polygon
         fill="#000000"
         stroke="#000000"
         points="838.972,-402.8896 843.7933,-393.4554 834.141,-397.8238 838.972,-402.8896"
         id="polygon140" />
    </g>
    <!-- mr180 -->
    <g
       id="node24"
       class="node">
      <title
         id="title143">mr180</title>
      <ellipse
         fill="none"
         stroke="#000000"
         cx="684"
         cy="-378"
         rx="36.4994"
         ry="18"
         id="ellipse145" />
      <text
         text-anchor="middle"
         x="684"
         y="-373.8"
         font-family="Times,serif"
         font-size="14.00"
         fill="#000000"
         id="text147">mr180</text>
    </g>
    <!-- m&#45;&gt;mr180 -->
    <g
       id="edge19"
       class="edge">
      <title
         id="title150">m-&gt;mr180</title>
      <path
         fill="none"
         stroke="#000000"
         d="M705.8337,-503.7623C701.5508,-479.0928 693.8715,-434.8598 688.8564,-405.9731"
         id="path152" />
      <polygon
         fill="#000000"
         stroke="#000000"
         points="692.2996,-405.3435 687.1406,-396.0896 685.4027,-406.541 692.2996,-405.3435"
         id="polygon154" />
    </g>
    <!-- mr270 -->
    <g
       id="node25"
       class="node">
      <title
         id="title157">mr270</title>
      <ellipse
         fill="none"
         stroke="#000000"
         cx="774"
         cy="-378"
         rx="36.4994"
         ry="18"
         id="ellipse159" />
      <text
         text-anchor="middle"
         x="774"
         y="-373.8"
         font-family="Times,serif"
         font-size="14.00"
         fill="#000000"
         id="text161">mr270</text>
    </g>
    <!-- m&#45;&gt;mr270 -->
    <g
       id="edge21"
       class="edge">
      <title
         id="title164">m-&gt;mr270</title>
      <path
         fill="none"
         stroke="#000000"
         d="M717.2323,-503.7623C728.4778,-478.8492 748.7293,-433.9843 761.7575,-405.1219"
         id="path166" />
      <polygon
         fill="#000000"
         stroke="#000000"
         points="765.1137,-406.1937 766.0379,-395.6392 758.7336,-403.3137 765.1137,-406.1937"
         id="polygon168" />
    </g>
    <!-- r -->
    <g
       id="node6"
       class="node">
      <title
         id="title171">r</title>
      <polygon
         fill="none"
         stroke="#000000"
         points="553,-468 499,-468 499,-432 553,-432 553,-468"
         id="polygon173" />
      <text
         text-anchor="middle"
         x="526"
         y="-445.8"
         font-family="Times,serif"
         font-size="14.00"
         fill="#000000"
         id="text175">r</text>
    </g>
    <!-- symmetries -->
    <g
       id="node14"
       class="node">
      <title
         id="title178">symmetries</title>
      <ellipse
         fill="none"
         stroke="#000000"
         cx="279"
         cy="-378"
         rx="55.612"
         ry="18"
         id="ellipse180" />
      <text
         text-anchor="middle"
         x="279"
         y="-373.8"
         font-family="Times,serif"
         font-size="14.00"
         fill="#000000"
         id="text182">symmetries</text>
    </g>
    <!-- r&#45;&gt;symmetries -->
    <g
       id="edge24"
       class="edge">
      <title
         id="title185">r-&gt;symmetries</title>
      <path
         fill="none"
         stroke="#000000"
         d="M498.9323,-444.3503C456.7165,-433.8145 376.4258,-410.7935 325.1594,-394.8465"
         id="path187" />
      <polygon
         fill="#000000"
         stroke="#000000"
         points="325.9022,-391.4114 315.313,-391.7573 323.8067,-398.0904 325.9022,-391.4114"
         id="polygon189" />
    </g>
    <!-- r&#45;&gt;symmetries -->
    <g
       id="edge25"
       class="edge">
      <title
         id="title192">r-&gt;symmetries</title>
      <path
         fill="none"
         stroke="#000000"
         d="M498.6229,-442.0196C458.1155,-430.2118 381.502,-407.8791 330.3391,-392.9652"
         id="path194" />
      <polygon
         fill="#000000"
         stroke="#000000"
         points="331.044,-389.5251 320.4641,-390.0867 329.085,-396.2454 331.044,-389.5251"
         id="polygon196" />
    </g>
    <!-- r&#45;&gt;symmetries -->
    <g
       id="edge26"
       class="edge">
      <title
         id="title199">r-&gt;symmetries</title>
      <path
         fill="none"
         stroke="#000000"
         d="M498.9865,-439.2209C459.2895,-426.3486 385.7102,-404.831 334.3998,-391.0359"
         id="path201" />
      <polygon
         fill="#000000"
         stroke="#000000"
         points="335.0154,-387.5779 324.4513,-388.3847 333.2128,-394.3418 335.0154,-387.5779"
         id="polygon203" />
    </g>
    <!-- r90 -->
    <g
       id="node18"
       class="node">
      <title
         id="title206">r90</title>
      <ellipse
         fill="none"
         stroke="#000000"
         cx="452"
         cy="-378"
         rx="27"
         ry="18"
         id="ellipse208" />
      <text
         text-anchor="middle"
         x="452"
         y="-373.8"
         font-family="Times,serif"
         font-size="14.00"
         fill="#000000"
         id="text210">r90</text>
    </g>
    <!-- r&#45;&gt;r90 -->
    <g
       id="edge10"
       class="edge">
      <title
         id="title213">r-&gt;r90</title>
      <path
         fill="none"
         stroke="#000000"
         d="M507.3267,-431.8314C497.404,-422.1769 485.1288,-410.2334 474.6636,-400.0511"
         id="path215" />
      <polygon
         fill="#000000"
         stroke="#000000"
         points="477.0308,-397.4709 467.4227,-393.0059 472.1493,-402.488 477.0308,-397.4709"
         id="polygon217" />
    </g>
    <!-- r180 -->
    <g
       id="node20"
       class="node">
      <title
         id="title220">r180</title>
      <ellipse
         fill="none"
         stroke="#000000"
         cx="526"
         cy="-378"
         rx="28.9754"
         ry="18"
         id="ellipse222" />
      <text
         text-anchor="middle"
         x="526"
         y="-373.8"
         font-family="Times,serif"
         font-size="14.00"
         fill="#000000"
         id="text224">r180</text>
    </g>
    <!-- r&#45;&gt;r180 -->
    <g
       id="edge12"
       class="edge">
      <title
         id="title227">r-&gt;r180</title>
      <path
         fill="none"
         stroke="#000000"
         d="M520.0476,-431.8314C519.2856,-424.0125 519.0696,-414.6923 519.3995,-406.0221"
         id="path229" />
      <polygon
         fill="#000000"
         stroke="#000000"
         points="522.9004,-406.1239 520.0727,-395.9134 515.9159,-405.6587 522.9004,-406.1239"
         id="polygon231" />
    </g>
    <!-- r&#45;&gt;r180 -->
    <g
       id="edge13"
       class="edge">
      <title
         id="title234">r-&gt;r180</title>
      <path
         fill="none"
         stroke="#000000"
         d="M531.9524,-431.8314C532.7144,-424.0125 532.9304,-414.6923 532.6005,-406.0221"
         id="path236" />
      <polygon
         fill="#000000"
         stroke="#000000"
         points="536.0841,-405.6587 531.9273,-395.9134 529.0996,-406.1239 536.0841,-405.6587"
         id="polygon238" />
    </g>
    <!-- r270 -->
    <g
       id="node21"
       class="node">
      <title
         id="title241">r270</title>
      <ellipse
         fill="none"
         stroke="#000000"
         cx="601"
         cy="-378"
         rx="28.9754"
         ry="18"
         id="ellipse243" />
      <text
         text-anchor="middle"
         x="601"
         y="-373.8"
         font-family="Times,serif"
         font-size="14.00"
         fill="#000000"
         id="text245">r270</text>
    </g>
    <!-- r&#45;&gt;r270 -->
    <g
       id="edge14"
       class="edge">
      <title
         id="title248">r-&gt;r270</title>
      <path
         fill="none"
         stroke="#000000"
         d="M538.9733,-431.8314C548.7179,-421.511 562.1384,-408.5749 574.0811,-397.9706"
         id="path250" />
      <polygon
         fill="#000000"
         stroke="#000000"
         points="576.405,-400.5881 581.6623,-391.3897 571.8162,-395.3019 576.405,-400.5881"
         id="polygon252" />
    </g>
    <!-- r&#45;&gt;r270 -->
    <g
       id="edge15"
       class="edge">
      <title
         id="title255">r-&gt;r270</title>
      <path
         fill="none"
         stroke="#000000"
         d="M550.8781,-431.8314C561.063,-422.8903 572.5791,-411.986 582.0752,-402.3355"
         id="path257" />
      <polygon
         fill="#000000"
         stroke="#000000"
         points="584.7894,-404.5623 589.1938,-394.9263 579.7416,-399.7125 584.7894,-404.5623"
         id="polygon259" />
    </g>
    <!-- r&#45;&gt;mr90 -->
    <g
       id="edge18"
       class="edge">
      <title
         id="title262">r-&gt;mr90</title>
      <path
         fill="none"
         stroke="#000000"
         d="M553.1621,-447.1234C605.4969,-441.1172 723.5703,-425.308 819,-396 821.4059,-395.2611 823.859,-394.4212 826.3088,-393.5177"
         id="path264" />
      <polygon
         fill="#000000"
         stroke="#000000"
         points="827.6443,-396.7533 835.6353,-389.7966 825.0502,-390.2517 827.6443,-396.7533"
         id="polygon266" />
    </g>
    <!-- r&#45;&gt;mr180 -->
    <g
       id="edge20"
       class="edge">
      <title
         id="title269">r-&gt;mr180</title>
      <path
         fill="none"
         stroke="#000000"
         d="M553.1612,-437.6228C579.3204,-425.7021 619.0569,-407.5943 647.8744,-394.4623"
         id="path271" />
      <polygon
         fill="#000000"
         stroke="#000000"
         points="649.5449,-397.5474 657.1933,-390.2157 646.6422,-391.1776 649.5449,-397.5474"
         id="polygon273" />
    </g>
    <!-- r&#45;&gt;mr270 -->
    <g
       id="edge22"
       class="edge">
      <title
         id="title276">r-&gt;mr270</title>
      <path
         fill="none"
         stroke="#000000"
         d="M553.2315,-443.8602C592.4791,-434.763 667.04,-416.5499 729,-396 731.5332,-395.1598 734.1295,-394.2515 736.7344,-393.3049"
         id="path278" />
      <polygon
         fill="#000000"
         stroke="#000000"
         points="737.9907,-396.5717 746.1073,-389.7621 735.5157,-390.0239 737.9907,-396.5717"
         id="polygon280" />
    </g>
    <!-- see -->
    <g
       id="node7"
       class="node">
      <title
         id="title283">see</title>
      <polygon
         fill="none"
         stroke="#000000"
         points="1182,-540 1128,-540 1128,-504 1182,-504 1182,-540"
         id="polygon285" />
      <text
         text-anchor="middle"
         x="1155"
         y="-517.8"
         font-family="Times,serif"
         font-size="14.00"
         fill="#000000"
         id="text287">see</text>
    </g>
    <!-- sym -->
    <g
       id="node27"
       class="node">
      <title
         id="title290">sym</title>
      <ellipse
         fill="none"
         stroke="#000000"
         cx="1107"
         cy="-450"
         rx="27.2661"
         ry="18"
         id="ellipse292" />
      <text
         text-anchor="middle"
         x="1107"
         y="-445.8"
         font-family="Times,serif"
         font-size="14.00"
         fill="#000000"
         id="text294">sym</text>
    </g>
    <!-- see&#45;&gt;sym -->
    <g
       id="edge31"
       class="edge">
      <title
         id="title297">see-&gt;sym</title>
      <path
         fill="none"
         stroke="#000000"
         d="M1142.8876,-503.8314C1137.1629,-495.2444 1130.2311,-484.8466 1123.9919,-475.4878"
         id="path299" />
      <polygon
         fill="#000000"
         stroke="#000000"
         points="1126.7434,-473.3053 1118.2842,-466.9263 1120.9191,-477.1883 1126.7434,-473.3053"
         id="polygon301" />
    </g>
    <!-- less -->
    <g
       id="node29"
       class="node">
      <title
         id="title304">less</title>
      <ellipse
         fill="none"
         stroke="#000000"
         cx="1218"
         cy="-450"
         rx="27"
         ry="18"
         id="ellipse306" />
      <text
         text-anchor="middle"
         x="1218"
         y="-445.8"
         font-family="Times,serif"
         font-size="14.00"
         fill="#000000"
         id="text308">less</text>
    </g>
    <!-- see&#45;&gt;less -->
    <g
       id="edge33"
       class="edge">
      <title
         id="title311">see-&gt;less</title>
      <path
         fill="none"
         stroke="#000000"
         d="M1170.8976,-503.8314C1178.9511,-494.6273 1188.825,-483.3429 1197.4486,-473.4873"
         id="path313" />
      <polygon
         fill="#000000"
         stroke="#000000"
         points="1200.0868,-475.7874 1204.0378,-465.9568 1194.8187,-471.1778 1200.0868,-475.7874"
         id="polygon315" />
    </g>
    <!-- canonical&#45;&gt;all -->
    <g
       id="edge35"
       class="edge">
      <title
         id="title318">canonical-&gt;all</title>
      <path
         fill="none"
         stroke="#000000"
         d="M278.4953,-287.8314C278.2814,-280.131 278.0271,-270.9743 277.7894,-262.4166"
         id="path320" />
      <polygon
         fill="#000000"
         stroke="#000000"
         points="281.2879,-262.3122 277.5115,-252.4133 274.2906,-262.5066 281.2879,-262.3122"
         id="polygon322" />
    </g>
    <!-- canonical&#45;&gt;uc -->
    <g
       id="edge39"
       class="edge">
      <title
         id="title325">canonical-&gt;uc</title>
      <path
         fill="none"
         stroke="#000000"
         d="M259.3173,-287.8314C248.7857,-278.1098 235.7397,-266.0674 224.6591,-255.8392"
         id="path327" />
      <polygon
         fill="#000000"
         stroke="#000000"
         points="226.7242,-252.9822 217.0022,-248.7712 221.9762,-258.1259 226.7242,-252.9822"
         id="polygon329" />
    </g>
    <!-- ild -->
    <g
       id="node9"
       class="node">
      <title
         id="title332">ild</title>
      <polygon
         fill="none"
         stroke="#000000"
         points="407,-396 353,-396 353,-360 407,-360 407,-396"
         id="polygon334" />
      <text
         text-anchor="middle"
         x="380"
         y="-373.8"
         font-family="Times,serif"
         font-size="14.00"
         fill="#000000"
         id="text336">ild</text>
    </g>
    <!-- ild&#45;&gt;canonical -->
    <g
       id="edge4"
       class="edge">
      <title
         id="title339">ild-&gt;canonical</title>
      <path
         fill="none"
         stroke="#000000"
         d="M354.5134,-359.8314C341.8341,-350.7927 326.3404,-339.7476 312.6945,-330.0198"
         id="path341" />
      <polygon
         fill="#000000"
         stroke="#000000"
         points="314.6529,-327.1176 304.4784,-324.1628 310.5895,-332.8176 314.6529,-327.1176"
         id="polygon343" />
    </g>
    <!-- wf -->
    <g
       id="node12"
       class="node">
      <title
         id="title346">wf</title>
      <polygon
         fill="none"
         stroke="#000000"
         points="685,-324 631,-324 631,-288 685,-288 685,-324"
         id="polygon348" />
      <text
         text-anchor="middle"
         x="658"
         y="-301.8"
         font-family="Times,serif"
         font-size="14.00"
         fill="#000000"
         id="text350">wf</text>
    </g>
    <!-- ild&#45;&gt;wf -->
    <g
       id="edge7"
       class="edge">
      <title
         id="title353">ild-&gt;wf</title>
      <path
         fill="none"
         stroke="#000000"
         d="M407.215,-363.5314C410.1385,-362.2376 413.1031,-361.03 416,-360 486.4733,-334.9444 572.7623,-319.0247 620.9345,-311.3815"
         id="path355" />
      <polygon
         fill="#000000"
         stroke="#000000"
         points="621.5576,-314.8268 630.9014,-309.8324 620.4825,-307.9098 621.5576,-314.8268"
         id="polygon357" />
    </g>
    <!-- cd -->
    <g
       id="node10"
       class="node">
      <title
         id="title360">cd</title>
      <polygon
         fill="none"
         stroke="#000000"
         points="54,-324 0,-324 0,-288 54,-288 54,-324"
         id="polygon362" />
      <text
         text-anchor="middle"
         x="27"
         y="-301.8"
         font-family="Times,serif"
         font-size="14.00"
         fill="#000000"
         id="text364">cd</text>
    </g>
    <!-- ok -->
    <g
       id="node11"
       class="node">
      <title
         id="title367">ok</title>
      <polygon
         fill="none"
         stroke="#000000"
         points="54,-252 0,-252 0,-216 54,-216 54,-252"
         id="polygon369" />
      <text
         text-anchor="middle"
         x="27"
         y="-229.8"
         font-family="Times,serif"
         font-size="14.00"
         fill="#000000"
         id="text371">ok</text>
    </g>
    <!-- cd&#45;&gt;ok -->
    <g
       id="edge5"
       class="edge">
      <title
         id="title374">cd-&gt;ok</title>
      <path
         fill="none"
         stroke="#000000"
         d="M27,-287.8314C27,-280.131 27,-270.9743 27,-262.4166"
         id="path376" />
      <polygon
         fill="#000000"
         stroke="#000000"
         points="30.5001,-262.4132 27,-252.4133 23.5001,-262.4133 30.5001,-262.4132"
         id="polygon378" />
    </g>
    <!-- ucp -->
    <g
       id="node34"
       class="node">
      <title
         id="title381">ucp</title>
      <ellipse
         fill="none"
         stroke="#000000"
         cx="201"
         cy="-162"
         rx="27"
         ry="18"
         id="ellipse383" />
      <text
         text-anchor="middle"
         x="201"
         y="-157.8"
         font-family="Times,serif"
         font-size="14.00"
         fill="#000000"
         id="text385">ucp</text>
    </g>
    <!-- ok&#45;&gt;ucp -->
    <g
       id="edge42"
       class="edge">
      <title
         id="title388">ok-&gt;ucp</title>
      <path
         fill="none"
         stroke="#000000"
         d="M54.0013,-220.1706C57.0188,-218.7234 60.0628,-217.3057 63,-216 98.2243,-200.3408 139.4896,-184.5135 167.6578,-174.0791"
         id="path390" />
      <polygon
         fill="#000000"
         stroke="#000000"
         points="168.8694,-177.3628 177.0436,-170.6224 166.4502,-170.7941 168.8694,-177.3628"
         id="polygon392" />
    </g>
    <!-- wp -->
    <g
       id="node13"
       class="node">
      <title
         id="title395">wp</title>
      <polygon
         fill="none"
         stroke="#000000"
         points="685,-252 631,-252 631,-216 685,-216 685,-252"
         id="polygon397" />
      <text
         text-anchor="middle"
         x="658"
         y="-229.8"
         font-family="Times,serif"
         font-size="14.00"
         fill="#000000"
         id="text399">wp</text>
    </g>
    <!-- wf&#45;&gt;wp -->
    <g
       id="edge8"
       class="edge">
      <title
         id="title402">wf-&gt;wp</title>
      <path
         fill="none"
         stroke="#000000"
         d="M658,-287.8314C658,-280.131 658,-270.9743 658,-262.4166"
         id="path404" />
      <polygon
         fill="#000000"
         stroke="#000000"
         points="661.5001,-262.4132 658,-252.4133 654.5001,-262.4133 661.5001,-262.4132"
         id="polygon406" />
    </g>
    <!-- symmetries&#45;&gt;canonical -->
    <g
       id="edge3"
       class="edge">
      <title
         id="title409">symmetries-&gt;canonical</title>
      <path
         fill="none"
         stroke="#000000"
         d="M279,-359.8314C279,-352.131 279,-342.9743 279,-334.4166"
         id="path411" />
      <polygon
         fill="#000000"
         stroke="#000000"
         points="282.5001,-334.4132 279,-324.4133 275.5001,-334.4133 282.5001,-334.4132"
         id="polygon413" />
    </g>
    <!-- wpi -->
    <g
       id="node15"
       class="node">
      <title
         id="title416">wpi</title>
      <ellipse
         fill="none"
         stroke="#000000"
         cx="936"
         cy="-378"
         rx="27"
         ry="18"
         id="ellipse418" />
      <text
         text-anchor="middle"
         x="936"
         y="-373.8"
         font-family="Times,serif"
         font-size="14.00"
         fill="#000000"
         id="text420">wpi</text>
    </g>
    <!-- wpi&#45;&gt;wf -->
    <g
       id="edge6"
       class="edge">
      <title
         id="title423">wpi-&gt;wf</title>
      <path
         fill="none"
         stroke="#000000"
         d="M915.0561,-366.4559C910.2095,-364.0882 905.0038,-361.779 900,-360 829.5267,-334.9444 743.2377,-319.0247 695.0655,-311.3815"
         id="path425" />
      <polygon
         fill="#000000"
         stroke="#000000"
         points="695.5175,-307.9098 685.0986,-309.8324 694.4424,-314.8268 695.5175,-307.9098"
         id="polygon427" />
    </g>
    <!-- boards -->
    <g
       id="node16"
       class="node">
      <title
         id="title430">boards</title>
      <ellipse
         fill="none"
         stroke="#000000"
         cx="1367"
         cy="-522"
         rx="36.5594"
         ry="18"
         id="ellipse432" />
      <text
         text-anchor="middle"
         x="1367"
         y="-517.8"
         font-family="Times,serif"
         font-size="14.00"
         fill="#000000"
         id="text434">boards</text>
    </g>
    <!-- encoded -->
    <g
       id="node17"
       class="node">
      <title
         id="title437">encoded</title>
      <ellipse
         fill="none"
         stroke="#000000"
         cx="1367"
         cy="-450"
         rx="43.4221"
         ry="18"
         id="ellipse439" />
      <text
         text-anchor="middle"
         x="1367"
         y="-445.8"
         font-family="Times,serif"
         font-size="14.00"
         fill="#000000"
         id="text441">encoded</text>
    </g>
    <!-- boards&#45;&gt;encoded -->
    <g
       id="edge9"
       class="edge">
      <title
         id="title444">boards-&gt;encoded</title>
      <path
         fill="none"
         stroke="#000000"
         d="M1367,-503.8314C1367,-496.131 1367,-486.9743 1367,-478.4166"
         id="path446" />
      <polygon
         fill="#000000"
         stroke="#000000"
         points="1370.5001,-478.4132 1367,-468.4133 1363.5001,-478.4133 1370.5001,-478.4132"
         id="polygon448" />
    </g>
    <!-- i -->
    <g
       id="node19"
       class="node">
      <title
         id="title451">i</title>
      <ellipse
         fill="none"
         stroke="#000000"
         cx="402"
         cy="-450"
         rx="27"
         ry="18"
         id="ellipse453" />
      <text
         text-anchor="middle"
         x="402"
         y="-445.8"
         font-family="Times,serif"
         font-size="14.00"
         fill="#000000"
         id="text455">i</text>
    </g>
    <!-- i&#45;&gt;symmetries -->
    <g
       id="edge23"
       class="edge">
      <title
         id="title458">i-&gt;symmetries</title>
      <path
         fill="none"
         stroke="#000000"
         d="M381.6891,-438.1107C363.5779,-427.509 336.6467,-411.7444 314.9078,-399.0192"
         id="path460" />
      <polygon
         fill="#000000"
         stroke="#000000"
         points="316.6531,-395.9853 306.2548,-393.954 313.1168,-402.0264 316.6531,-395.9853"
         id="polygon462" />
    </g>
    <!-- i&#45;&gt;r90 -->
    <g
       id="edge11"
       class="edge">
      <title
         id="title465">i-&gt;r90</title>
      <path
         fill="none"
         stroke="#000000"
         d="M413.3458,-433.6621C419.5855,-424.6768 427.4623,-413.3343 434.4749,-403.2362"
         id="path467" />
      <polygon
         fill="#000000"
         stroke="#000000"
         points="437.5229,-404.983 440.3521,-394.7729 431.7733,-400.9902 437.5229,-404.983"
         id="polygon469" />
    </g>
    <!-- mi&#45;&gt;symmetries -->
    <g
       id="edge27"
       class="edge">
      <title
         id="title472">mi-&gt;symmetries</title>
      <path
         fill="none"
         stroke="#000000"
         d="M222.2693,-434.7307C231.6604,-425.3396 243.9064,-413.0936 254.6162,-402.3838"
         id="path474" />
      <polygon
         fill="#000000"
         stroke="#000000"
         points="257.1351,-404.8147 261.7313,-395.2687 252.1853,-399.8649 257.1351,-404.8147"
         id="polygon476" />
    </g>
    <!-- mr -->
    <g
       id="node26"
       class="node">
      <title
         id="title479">mr</title>
      <ellipse
         fill="none"
         stroke="#000000"
         cx="279"
         cy="-450"
         rx="27"
         ry="18"
         id="ellipse481" />
      <text
         text-anchor="middle"
         x="279"
         y="-445.8"
         font-family="Times,serif"
         font-size="14.00"
         fill="#000000"
         id="text483">mr</text>
    </g>
    <!-- mr&#45;&gt;symmetries -->
    <g
       id="edge28"
       class="edge">
      <title
         id="title486">mr-&gt;symmetries</title>
      <path
         fill="none"
         stroke="#000000"
         d="M267.4784,-433.6621C265.6394,-425.4626 265.0825,-415.3 265.8075,-405.9114"
         id="path488" />
      <polygon
         fill="#000000"
         stroke="#000000"
         points="269.3051,-406.1638 267.1709,-395.7862 262.3677,-405.2297 269.3051,-406.1638"
         id="polygon490" />
    </g>
    <!-- mr&#45;&gt;symmetries -->
    <g
       id="edge29"
       class="edge">
      <title
         id="title493">mr-&gt;symmetries</title>
      <path
         fill="none"
         stroke="#000000"
         d="M279,-431.8314C279,-424.131 279,-414.9743 279,-406.4166"
         id="path495" />
      <polygon
         fill="#000000"
         stroke="#000000"
         points="282.5001,-406.4132 279,-396.4133 275.5001,-406.4133 282.5001,-406.4132"
         id="polygon497" />
    </g>
    <!-- mr&#45;&gt;symmetries -->
    <g
       id="edge30"
       class="edge">
      <title
         id="title500">mr-&gt;symmetries</title>
      <path
         fill="none"
         stroke="#000000"
         d="M290.5216,-433.6621C292.3606,-425.4626 292.9175,-415.3 292.1925,-405.9114"
         id="path502" />
      <polygon
         fill="#000000"
         stroke="#000000"
         points="295.6323,-405.2297 290.8291,-395.7862 288.6949,-406.1638 295.6323,-405.2297"
         id="polygon504" />
    </g>
    <!-- symmetric -->
    <g
       id="node28"
       class="node">
      <title
         id="title507">symmetric</title>
      <ellipse
         fill="none"
         stroke="#000000"
         cx="1058"
         cy="-522"
         rx="51.6016"
         ry="18"
         id="ellipse509" />
      <text
         text-anchor="middle"
         x="1058"
         y="-517.8"
         font-family="Times,serif"
         font-size="14.00"
         fill="#000000"
         id="text511">symmetric</text>
    </g>
    <!-- symmetric&#45;&gt;sym -->
    <g
       id="edge32"
       class="edge">
      <title
         id="title514">symmetric-&gt;sym</title>
      <path
         fill="none"
         stroke="#000000"
         d="M1070.1124,-504.2022C1076.1011,-495.4025 1083.4298,-484.6338 1089.9724,-475.0202"
         id="path516" />
      <polygon
         fill="#000000"
         stroke="#000000"
         points="1092.966,-476.8422 1095.6988,-466.6058 1087.179,-472.9038 1092.966,-476.8422"
         id="polygon518" />
    </g>
    <!-- asymmetric -->
    <g
       id="node30"
       class="node">
      <title
         id="title521">asymmetric</title>
      <ellipse
         fill="none"
         stroke="#000000"
         cx="1256"
         cy="-522"
         rx="56.1744"
         ry="18"
         id="ellipse523" />
      <text
         text-anchor="middle"
         x="1256"
         y="-517.8"
         font-family="Times,serif"
         font-size="14.00"
         fill="#000000"
         id="text525">asymmetric</text>
    </g>
    <!-- asymmetric&#45;&gt;less -->
    <g
       id="edge34"
       class="edge">
      <title
         id="title528">asymmetric-&gt;less</title>
      <path
         fill="none"
         stroke="#000000"
         d="M1246.6067,-504.2022C1242.1232,-495.7071 1236.6711,-485.3767 1231.734,-476.0223"
         id="path530" />
      <polygon
         fill="#000000"
         stroke="#000000"
         points="1234.7865,-474.3074 1227.0235,-467.0972 1228.5958,-477.5748 1234.7865,-474.3074"
         id="polygon532" />
    </g>
    <!-- uc&#45;&gt;ucp -->
    <g
       id="edge41"
       class="edge">
      <title
         id="title535">uc-&gt;ucp</title>
      <path
         fill="none"
         stroke="#000000"
         d="M195.0843,-216.2022C194.2798,-208.1807 194.0571,-198.5231 194.4162,-189.5957"
         id="path537" />
      <polygon
         fill="#000000"
         stroke="#000000"
         points="197.9097,-189.8099 195.105,-179.593 190.9262,-189.3289 197.9097,-189.8099"
         id="polygon539" />
    </g>
    <!-- uc&#45;&gt;ucp -->
    <g
       id="edge43"
       class="edge">
      <title
         id="title542">uc-&gt;ucp</title>
      <path
         fill="none"
         stroke="#000000"
         d="M206.9157,-216.2022C207.7202,-208.1807 207.9429,-198.5231 207.5838,-189.5957"
         id="path544" />
      <polygon
         fill="#000000"
         stroke="#000000"
         points="211.0738,-189.3289 206.895,-179.593 204.0903,-189.8099 211.0738,-189.3289"
         id="polygon546" />
    </g>
    <!-- mn -->
    <g
       id="node35"
       class="node">
      <title
         id="title549">mn</title>
      <ellipse
         fill="none"
         stroke="#000000"
         cx="201"
         cy="-90"
         rx="27"
         ry="18"
         id="ellipse551" />
      <text
         text-anchor="middle"
         x="201"
         y="-85.8"
         font-family="Times,serif"
         font-size="14.00"
         fill="#000000"
         id="text553">mn</text>
    </g>
    <!-- ucp&#45;&gt;mn -->
    <g
       id="edge44"
       class="edge">
      <title
         id="title556">ucp-&gt;mn</title>
      <path
         fill="none"
         stroke="#000000"
         d="M201,-143.8314C201,-136.131 201,-126.9743 201,-118.4166"
         id="path558" />
      <polygon
         fill="#000000"
         stroke="#000000"
         points="204.5001,-118.4132 201,-108.4133 197.5001,-118.4133 204.5001,-118.4132"
         id="polygon560" />
    </g>
    <!-- mnp -->
    <g
       id="node36"
       class="node">
      <title
         id="title563">mnp</title>
      <ellipse
         fill="none"
         stroke="#000000"
         cx="201"
         cy="-18"
         rx="28.4127"
         ry="18"
         id="ellipse565" />
      <text
         text-anchor="middle"
         x="201"
         y="-13.8"
         font-family="Times,serif"
         font-size="14.00"
         fill="#000000"
         id="text567">mnp</text>
    </g>
    <!-- mn&#45;&gt;mnp -->
    <g
       id="edge45"
       class="edge">
      <title
         id="title570">mn-&gt;mnp</title>
      <path
         fill="none"
         stroke="#000000"
         d="M201,-71.8314C201,-64.131 201,-54.9743 201,-46.4166"
         id="path572" />
      <polygon
         fill="#000000"
         stroke="#000000"
         points="204.5001,-46.4132 201,-36.4133 197.5001,-46.4133 204.5001,-46.4132"
         id="polygon574" />
    </g>
    <!-- rows -->
    <g
       id="node37"
       class="node">
      <title
         id="title577">rows</title>
      <ellipse
         fill="none"
         stroke="#000000"
         cx="1032"
         cy="-450"
         rx="29.6147"
         ry="18"
         id="ellipse579" />
      <text
         text-anchor="middle"
         x="1032"
         y="-445.8"
         font-family="Times,serif"
         font-size="14.00"
         fill="#000000"
         id="text581">rows</text>
    </g>
    <!-- rows&#45;&gt;wpi -->
    <g
       id="edge46"
       class="edge">
      <title
         id="title584">rows-&gt;wpi</title>
      <path
         fill="none"
         stroke="#000000"
         d="M1010.0112,-437.4586C994.68,-427.1242 974.4759,-412.2216 958.9603,-399.9216"
         id="path586" />
      <polygon
         fill="#000000"
         stroke="#000000"
         points="960.8631,-396.9596 950.8835,-393.4016 956.4661,-402.4064 960.8631,-396.9596"
         id="polygon588" />
    </g>
    <!-- rows&#45;&gt;wpi -->
    <g
       id="edge49"
       class="edge">
      <title
         id="title591">rows-&gt;wpi</title>
      <path
         fill="none"
         stroke="#000000"
         d="M1016.8479,-434.3771C1002.9841,-422.9659 982.4121,-407.4818 965.4028,-395.6281"
         id="path593" />
      <polygon
         fill="#000000"
         stroke="#000000"
         points="967.1166,-392.5599 956.8872,-389.8012 963.1635,-398.3369 967.1166,-392.5599"
         id="polygon595" />
    </g>
    <!-- cols -->
    <g
       id="node38"
       class="node">
      <title
         id="title598">cols</title>
      <ellipse
         fill="none"
         stroke="#000000"
         cx="843"
         cy="-450"
         rx="27"
         ry="18"
         id="ellipse600" />
      <text
         text-anchor="middle"
         x="843"
         y="-445.8"
         font-family="Times,serif"
         font-size="14.00"
         fill="#000000"
         id="text602">cols</text>
    </g>
    <!-- cols&#45;&gt;wpi -->
    <g
       id="edge47"
       class="edge">
      <title
         id="title605">cols-&gt;wpi</title>
      <path
         fill="none"
         stroke="#000000"
         d="M857.5012,-434.3771C870.8895,-422.9659 890.8164,-407.4818 907.3317,-395.6281"
         id="path607" />
      <polygon
         fill="#000000"
         stroke="#000000"
         points="909.4444,-398.4211 915.6045,-389.8012 905.4134,-392.6982 909.4444,-398.4211"
         id="polygon609" />
    </g>
    <!-- cols&#45;&gt;wpi -->
    <g
       id="edge50"
       class="edge">
      <title
         id="title612">cols-&gt;wpi</title>
      <path
         fill="none"
         stroke="#000000"
         d="M863.5234,-438.1107C878.4751,-427.7983 898.4761,-412.6008 913.7752,-400.0674"
         id="path614" />
      <polygon
         fill="#000000"
         stroke="#000000"
         points="916.2961,-402.5223 921.7291,-393.4265 911.8097,-397.1489 916.2961,-402.5223"
         id="polygon616" />
    </g>
    <!-- diagonals -->
    <g
       id="node39"
       class="node">
      <title
         id="title619">diagonals</title>
      <ellipse
         fill="none"
         stroke="#000000"
         cx="936"
         cy="-450"
         rx="48.0935"
         ry="18"
         id="ellipse621" />
      <text
         text-anchor="middle"
         x="936"
         y="-445.8"
         font-family="Times,serif"
         font-size="14.00"
         fill="#000000"
         id="text623">diagonals</text>
    </g>
    <!-- diagonals&#45;&gt;wpi -->
    <g
       id="edge48"
       class="edge">
      <title
         id="title626">diagonals-&gt;wpi</title>
      <path
         fill="none"
         stroke="#000000"
         d="M930.0476,-431.8314C929.2856,-424.0125 929.0696,-414.6923 929.3995,-406.0221"
         id="path628" />
      <polygon
         fill="#000000"
         stroke="#000000"
         points="932.9004,-406.1239 930.0727,-395.9134 925.9159,-405.6587 932.9004,-406.1239"
         id="polygon630" />
    </g>
    <!-- diagonals&#45;&gt;wpi -->
    <g
       id="edge51"
       class="edge">
      <title
         id="title633">diagonals-&gt;wpi</title>
      <path
         fill="none"
         stroke="#000000"
         d="M941.9524,-431.8314C942.7144,-424.0125 942.9304,-414.6923 942.6005,-406.0221"
         id="path635" />
      <polygon
         fill="#000000"
         stroke="#000000"
         points="946.0841,-405.6587 941.9273,-395.9134 939.0996,-406.1239 946.0841,-405.6587"
         id="polygon637" />
    </g>
  </g>
</svg>
